<svg width="295" height="47" viewBox="0 0 295 47" fill="none" xmlns="http://www.w3.org/2000/svg">
<path d="M126 47C126 42.5351 124.655 38.1138 122.042 33.9888C119.428 29.8637 115.598 26.1156 110.77 22.9584C105.941 19.8012 100.208 17.2968 93.8995 15.5881C87.5906 13.8794 80.8287 13 74 13C67.1713 13 60.4094 13.8794 54.1005 15.5881C47.7915 17.2968 42.0591 19.8012 37.2304 22.9584C32.4018 26.1156 28.5715 29.8637 25.9583 33.9888C23.345 38.1138 22 42.5351 22 47L126 47Z" fill="url(#paint0_linear_3506_88)"/>
<path d="M52 47C52 44.7675 51.3275 42.5569 50.0209 40.4944C48.7142 38.4318 46.7991 36.5578 44.3848 34.9792C41.9705 33.4006 39.1042 32.1484 35.9498 31.294C32.7953 30.4397 29.4144 30 26 30C22.5856 30 19.2047 30.4397 16.0502 31.294C12.8958 32.1484 10.0295 33.4006 7.61522 34.9792C5.2009 36.5578 3.28575 38.4318 1.97913 40.4944C0.672509 42.5569 -2.98494e-07 44.7675 0 47L52 47Z" fill="url(#paint1_linear_3506_88)"/>
<path d="M295 47C295 44.7675 294.327 42.5569 293.021 40.4944C291.714 38.4318 289.799 36.5578 287.385 34.9792C284.97 33.4006 282.104 32.1484 278.95 31.294C275.795 30.4397 272.414 30 269 30C265.586 30 262.205 30.4397 259.05 31.294C255.896 32.1484 253.03 33.4006 250.615 34.9792C248.201 36.5578 246.286 38.4318 244.979 40.4944C243.673 42.5569 243 44.7675 243 47L295 47Z" fill="url(#paint2_linear_3506_88)"/>
<path d="M214 47C214 40.8279 212.293 34.7162 208.976 29.0139C205.659 23.3116 200.798 18.1303 194.669 13.766C188.54 9.40163 181.265 5.93963 173.257 3.57766C165.25 1.21569 156.667 -2.69792e-07 148 0C139.333 2.69792e-07 130.75 1.21569 122.743 3.57766C114.735 5.93963 107.46 9.40163 101.331 13.766C95.2023 18.1303 90.3408 23.3116 87.0239 29.0139C83.7071 34.7162 82 40.8279 82 47L214 47Z" fill="url(#paint3_linear_3506_88)"/>
<path d="M273 47C273 43.323 271.552 39.682 268.737 36.2849C265.923 32.8877 261.798 29.8011 256.598 27.201C251.398 24.601 245.225 22.5385 238.43 21.1314C231.636 19.7242 224.354 19 217 19C209.646 19 202.364 19.7242 195.57 21.1314C188.775 22.5385 182.602 24.601 177.402 27.201C172.202 29.8011 168.077 32.8877 165.263 36.2849C162.448 39.682 161 43.323 161 47L273 47Z" fill="url(#paint4_linear_3506_88)"/>
<defs>
<linearGradient id="paint0_linear_3506_88" x1="147.5" y1="-4" x2="147.5" y2="52.5" gradientUnits="userSpaceOnUse">
<stop stop-color="#633EC9"/>
<stop offset="0.0001" stop-color="#633EC9"/>
<stop offset="0.489583" stop-color="#9E70EF"/>
<stop offset="1" stop-color="#633EC9"/>
</linearGradient>
<linearGradient id="paint1_linear_3506_88" x1="147.5" y1="-4" x2="147.5" y2="52.5" gradientUnits="userSpaceOnUse">
<stop stop-color="#633EC9"/>
<stop offset="0.0001" stop-color="#633EC9"/>
<stop offset="0.489583" stop-color="#9E70EF"/>
<stop offset="1" stop-color="#633EC9"/>
</linearGradient>
<linearGradient id="paint2_linear_3506_88" x1="147.5" y1="-4" x2="147.5" y2="52.5" gradientUnits="userSpaceOnUse">
<stop stop-color="#633EC9"/>
<stop offset="0.0001" stop-color="#633EC9"/>
<stop offset="0.489583" stop-color="#9E70EF"/>
<stop offset="1" stop-color="#633EC9"/>
</linearGradient>
<linearGradient id="paint3_linear_3506_88" x1="147.5" y1="-4" x2="147.5" y2="52.5" gradientUnits="userSpaceOnUse">
<stop stop-color="#633EC9"/>
<stop offset="0.0001" stop-color="#633EC9"/>
<stop offset="0.489583" stop-color="#9E70EF"/>
<stop offset="1" stop-color="#633EC9"/>
</linearGradient>
<linearGradient id="paint4_linear_3506_88" x1="147.5" y1="-4" x2="147.5" y2="52.5" gradientUnits="userSpaceOnUse">
<stop stop-color="#633EC9"/>
<stop offset="0.0001" stop-color="#633EC9"/>
<stop offset="0.489583" stop-color="#9E70EF"/>
<stop offset="1" stop-color="#633EC9"/>
</linearGradient>
</defs>
</svg>
